<?xml version="1.0" encoding="UTF-8"?><svg id="Layer_1" xmlns="http://www.w3.org/2000/svg" viewBox="0 0 200 200"><defs><style>.cls-1{fill:#db0b0b;}</style></defs><polygon class="cls-1" points="117.1 86.3 115 94.1 107.8 94.4 100.2 100 92.2 94.2 85.7 94.5 82.9 86.9 89.2 81.8 94.6 85.4 92.1 77.4 100.2 71.5 108.3 77.4 105.7 85.5 110.4 81.8 117.1 86.3"/><polygon class="cls-1" points="117.1 57.8 115 65.7 107.8 66 100.2 71.5 92.2 65.7 85.7 66 82.9 58.4 89.2 53.3 94.6 56.9 92.1 49 100.2 43.1 108.3 49 105.7 57 110.4 53.3 117.1 57.8"/><polygon class="cls-1" points="82.9 114.8 85 122.6 92.2 122.9 99.8 128.5 107.8 122.7 114.3 123 117.1 115.3 110.8 110.3 105.4 113.9 107.9 105.9 99.8 100 91.7 105.9 94.3 114 89.6 110.3 82.9 114.8"/><polygon class="cls-1" points="82.9 143.2 85 151.1 92.2 151.4 99.8 156.9 107.8 151.1 114.3 151.4 117.1 143.8 110.8 138.7 105.4 142.3 107.9 134.4 99.8 128.5 91.7 134.4 94.3 142.4 89.6 138.7 82.9 143.2"/><path class="cls-1" d="M100,166.7c-36.8,0-66.7-29.9-66.7-66.7S63.2,33.3,100,33.3s66.7,29.9,66.7,66.7-29.9,66.7-66.7,66.7ZM100,37c-34.8,0-63,28.3-63,63s28.3,63,63,63,63-28.3,63-63-28.3-63-63-63Z"/><path class="cls-1" d="M84.3,27.1l-4.8-12.1,2.9-.4,3.8,10.3-.7-.3,1.6-.2-.6.5.5-10.4,2.3-.3-.8,12.4-4.3.6ZM91.7,26.1l-4.2-11.7,2.4-.3,3.5,9.9-.7-.3,1.5-.2-.5.5.7-10.9,2.7-.4-1.1,12.9-4.3.6Z"/><path class="cls-1" d="M103.7,25.5l1.5-12.5,2.8.3-1.5,12.5-2.8-.3ZM106.6,20.8l.3-2.5,6.3.8-.3,2.5-6.3-.8ZM111.8,26.5l1.5-12.5,2.8.3-1.5,12.5-2.8-.3Z"/><path class="cls-1" d="M120.4,28.4l4.1-11.9,2.6.9-4.1,11.9-2.6-.9ZM122.7,29.2l.8-2.2,5.2,1.8-.8,2.2-5.2-1.8ZM124.4,24.2l.8-2.2,4.8,1.6-.8,2.2-4.8-1.6ZM126,19.5l.8-2.2,5.1,1.7-.8,2.2-5.1-1.7Z"/><path class="cls-1" d="M133,33.2l6.4-11,2.5,1.4-6.4,11-2.5-1.4ZM136.8,30.7l1.1-1.9,2.7,1.6c.4.2.7.3,1.1.3.3,0,.7,0,1-.3.3-.2.6-.4.7-.8.2-.4.3-.7.3-1.1,0-.4,0-.7-.3-1-.2-.3-.4-.5-.8-.8l-2.7-1.6,1.2-2.1,2.5,1.4c.9.5,1.6,1.1,2.1,1.8.5.7.8,1.4.8,2.1,0,.8-.2,1.5-.6,2.3v.2c-.6.8-1.2,1.4-1.8,1.7-.7.3-1.4.4-2.2.3-.8-.1-1.7-.4-2.6-1l-2.5-1.4ZM139.6,37l-.5-6.6,2.7,1.6.6,6.6-2.8-1.6Z"/><path class="cls-1" d="M146.3,41.7l8.3-9.5,2.1,1.8-8.3,9.5-2.1-1.8ZM148.1,43.3l1.6-1.8,4.1,3.6-1.6,1.8-4.1-3.6ZM151.6,39.4l1.6-1.8,3.8,3.4-1.6,1.8-3.8-3.4ZM154.9,35.6l1.6-1.8,4,3.6-1.6,1.8-4-3.6Z"/><path class="cls-1" d="M160.5,56.6l10.7-6.8,1.5,2.4-10.7,6.8-1.5-2.4ZM164.9,56.8l2.1-1.3,1.2,1.9c.2.4.5.6.8.8.3.2.7.2,1,.2.4,0,.7-.2,1.1-.4.4-.2.6-.5.8-.8.2-.3.3-.6.2-1,0-.4-.2-.7-.4-1.1l-1.2-1.9,2.1-1.3,1.1,1.8c.6.9.9,1.8,1,2.6.1.8,0,1.6-.3,2.3-.3.7-.9,1.3-1.7,1.8h-.2c-.8.6-1.5.9-2.3.9-.8,0-1.5-.2-2.2-.7-.7-.5-1.4-1.1-1.9-2l-1.1-1.8Z"/><path class="cls-1" d="M167.1,67.4l13.3-.6,1.6,4.3-10.2,8.5-1.1-2.7,8.7-7.1v1s-.8-2.1-.8-2.1l.7.7-11.2.6-1-2.6ZM171.2,69.2h2.5s1.8,4.6,1.8,4.6l-1.9,1.7-2.4-6.2Z"/><path class="cls-1" d="M173.2,88.6c-.2-1.1-.1-2.1.1-2.9.2-.8.6-1.5,1.2-2,.6-.5,1.2-.8,2-.9l.4,2.7c-.3,0-.6.2-.8.4-.2.2-.4.5-.5.9-.1.4-.1.9,0,1.5,0,.5.2,1,.4,1.3.2.3.4.6.7.7.3.1.6.2.9.1.4,0,.7-.3.9-.7.2-.4.2-1,.2-1.7v-.9c-.2-1.3,0-2.3.6-3.2.6-.8,1.4-1.4,2.5-1.5.8-.1,1.5,0,2.2.2.6.3,1.2.8,1.6,1.4.4.6.7,1.4.8,2.4.2,1,.1,1.8-.1,2.6-.2.8-.6,1.4-1.2,1.8-.6.5-1.2.8-2,.9l-.4-2.7c.3,0,.6-.2.8-.4.2-.2.4-.4.5-.8.1-.3.1-.7,0-1.1,0-.4-.2-.7-.4-1-.2-.3-.4-.4-.6-.5-.3,0-.5-.1-.8,0-.3,0-.6.2-.8.5-.2.3-.3.7-.3,1.3v1c.1.9,0,1.8-.1,2.5-.2.7-.5,1.4-1,1.8-.5.5-1.1.8-1.9.9-.8.1-1.5,0-2.2-.3-.7-.3-1.2-.8-1.7-1.5-.4-.7-.8-1.6-.9-2.7Z"/><path class="cls-1" d="M174,103.2c0-1.1.3-2.1.7-2.9.4-.8.9-1.3,1.6-1.7.6-.4,1.4-.6,2.2-.5v2.8c-.4,0-.7,0-1,.2-.3.2-.5.4-.7.8-.2.4-.3.8-.3,1.4,0,.5,0,1,.2,1.3.1.4.3.6.5.8.2.2.5.3.8.3.4,0,.7-.1,1-.5.2-.3.4-.9.5-1.7v-.9c.3-1.2.7-2.2,1.4-3,.7-.7,1.6-1.1,2.7-1,.8,0,1.5.3,2.1.7s1,1,1.3,1.7c.3.7.4,1.5.4,2.5,0,1-.2,1.8-.6,2.5-.4.7-.9,1.2-1.5,1.6-.6.4-1.4.5-2.2.5v-2.8c.4,0,.7,0,1-.2.3-.1.5-.4.6-.6.2-.3.3-.6.3-1.1,0-.4,0-.8-.2-1.1-.1-.3-.3-.5-.5-.7-.2-.1-.5-.2-.8-.2-.3,0-.7,0-.9.3-.3.2-.4.7-.5,1.2v1c-.2.9-.5,1.7-.8,2.4-.3.7-.8,1.2-1.4,1.6-.6.4-1.2.5-2,.5-.8,0-1.5-.3-2.1-.7-.6-.4-1-1.1-1.3-1.8s-.4-1.7-.4-2.8Z"/><path class="cls-1" d="M173.2,113.6l12.4,2.5-.6,2.8-12.4-2.5.6-2.8Z"/><path class="cls-1" d="M168.7,127.9c.4-1.1,1-1.9,1.7-2.5.7-.6,1.4-1.1,2.3-1.4.8-.3,1.6-.4,2.4-.4.8,0,1.5.2,2.2.4h.4c.7.4,1.4.9,2,1.4.6.5,1.1,1.2,1.4,2s.6,1.6.6,2.5c0,.9-.2,1.9-.6,2.9-.4,1-1,1.9-1.6,2.5-.7.6-1.4,1.1-2.2,1.4-.8.3-1.6.4-2.4.4-.8,0-1.6-.2-2.3-.5h-.4c-.7-.4-1.3-.8-1.9-1.4-.6-.5-1.1-1.2-1.5-1.9-.4-.8-.6-1.6-.7-2.5,0-.9.1-1.9.6-3ZM171.1,128.9c-.2.6-.3,1.1-.3,1.6,0,.5.1,1,.3,1.5s.5.8.9,1.2c.4.3.8.6,1.3.8.5.2,1.1.3,1.6.4.5,0,1,0,1.5-.2.5-.2.9-.5,1.2-.8s.7-.8.9-1.4c.2-.6.3-1.1.3-1.6,0-.5-.1-1-.3-1.4-.2-.4-.5-.8-.9-1.2-.4-.3-.9-.6-1.4-.8-.5-.2-1-.3-1.5-.3-.5,0-1,0-1.5.2-.5.2-.9.4-1.3.8-.4.4-.7.8-.9,1.4Z"/><path class="cls-1" d="M163.8,138.8l10.2,7.4-2.7,3.8-11.1-2.2-.3.5v-.5s8.5,6.2,8.5,6.2l-1.6,2.2-10.2-7.4,2.8-3.8,11.1,2.2.3-.5v.5s-8.5-6.2-8.5-6.2l1.5-2.1Z"/><path class="cls-1" d="M145.1,159.2l1.3,1.8-2.4,1.7c-.4.3-.7.7-.7,1,0,.4,0,.8.4,1.2.3.4.6.6,1,.7.4,0,.8,0,1.2-.4l2.4-1.7,1,1.4-2.3,1.6c-.7.5-1.4.9-2.1,1.1-.7.2-1.3.3-1.9.1-.6-.2-1.1-.6-1.6-1.2v-.2c-.6-.6-.8-1.2-.8-1.9s.1-1.3.5-1.9c.4-.6,1-1.2,1.8-1.8l2.3-1.6ZM148.5,163.9l1,1.4-2,1.5c-.4.3-.7.6-.7,1,0,.4,0,.7.3,1.1.3.4.6.6,1,.7.4,0,.8,0,1.2-.4l2-1.5,1.3,1.8-1.9,1.4c-1.2.8-2.3,1.3-3.2,1.2-1,0-1.8-.5-2.5-1.4l-.2-.2c-.5-.6-.7-1.3-.6-1.9s.3-1.2.7-1.8,1-1.1,1.7-1.6l1.9-1.4ZM147.1,157.8l7.5,10.4-2.2,1.6-7.5-10.4,2.2-1.6Z"/><path class="cls-1" d="M127.5,169.3l5.6,3.5-2.9,1.3-5.7-3.4,3-1.3ZM134.3,170.8l.9,2-2.8,1.3c-.4.2-.7.4-.9.7-.2.3-.3.6-.4.9,0,.3,0,.7.2,1.1.2.4.4.7.7.9s.6.3.9.4c.3,0,.7,0,1.1-.2l2.8-1.3,1,2.2-2.6,1.2c-1,.4-1.9.6-2.7.7-.8,0-1.6-.2-2.2-.6s-1.1-1-1.5-1.9v-.3c-.5-.9-.6-1.6-.5-2.4.1-.7.5-1.4,1.1-2,.6-.6,1.3-1.1,2.3-1.5l2.6-1.2ZM134.5,166.2l5.1,11.6-2.6,1.1-5.1-11.6,2.6-1.1Z"/><path class="cls-1" d="M119.6,171.9l3.1,12.2-2.7.7-3.1-12.2,2.7-.7Z"/><path class="cls-1" d="M110.9,174l.8,12.6-4.6.3-5.4-10h-.6s.3-.3.3-.3l.7,10.6-2.7.2-.8-12.6,4.7-.3,5.4,10h.6s-.3.3-.3.3l-.7-10.6,2.6-.2Z"/><path class="cls-1" d="M86.4,177.9l-.4,2-6.8-1.2.4-2,6.8,1.2ZM86.9,173.1c1.1.2,2,.6,2.8,1.1.8.5,1.4,1.1,1.8,1.9.4.7.7,1.5.8,2.3.1.8.1,1.6,0,2.4v.4c-.2.8-.5,1.5-.9,2.2s-.9,1.3-1.5,1.8-1.4.9-2.2,1.1c-.9.2-1.8.3-2.8,0-1.1-.2-2.1-.6-2.9-1.1-.8-.6-1.4-1.3-1.8-2.1-.4-.8-.5-1.7-.5-2.7l2.8.5c0,.5.1.9.3,1.3s.6.7,1,1,.9.4,1.5.5c.5,0,1,0,1.5,0,.5-.1.9-.3,1.2-.6.4-.3.7-.7.9-1.1.2-.5.4-1,.5-1.6.1-.6.1-1.2,0-1.7,0-.5-.2-1-.5-1.4-.3-.4-.6-.8-1-1-.4-.3-.9-.5-1.5-.6-.8-.1-1.5,0-2.1.1-.6.2-1.1.6-1.4,1l.7-1.8-.5,3-2.6-.4.5-2.7c.7-.8,1.5-1.3,2.6-1.6,1-.3,2.1-.3,3.4-.1Z"/><path class="cls-1" d="M71.7,168.6c1.1.4,1.9,1,2.5,1.6.6.6.9,1.3,1.1,2.1.1.7,0,1.5-.3,2.2l-2.6-1.1c.1-.3.2-.6,0-.9,0-.3-.2-.6-.5-.9-.3-.3-.7-.6-1.2-.8-.5-.2-.9-.3-1.3-.3-.4,0-.7,0-1,.2-.3.2-.5.4-.6.7-.2.4-.1.7.1,1.1.2.4.7.7,1.4,1.1l.9.4c1.1.6,1.9,1.3,2.3,2.2.4.9.4,1.9,0,2.9-.3.8-.8,1.3-1.3,1.7s-1.3.6-2,.6c-.8,0-1.6-.1-2.4-.5-.9-.4-1.6-.9-2.2-1.5-.5-.6-.8-1.2-1-2s0-1.4.3-2.2l2.6,1.1c-.1.3-.2.6-.1.9,0,.3.2.6.4.8.2.3.5.5.9.6.4.2.7.2,1,.2.3,0,.6-.1.8-.3.2-.2.4-.4.5-.6.1-.3.1-.6,0-1-.1-.3-.5-.6-1-.9l-.9-.4c-.8-.4-1.5-.9-2-1.5-.5-.6-.9-1.2-1-1.8-.2-.7,0-1.3.2-2.1.3-.7.8-1.3,1.4-1.7.6-.4,1.4-.6,2.2-.6s1.8.2,2.7.6Z"/><path class="cls-1" d="M52.4,157c.9.8,1.5,1.6,1.9,2.5.3.9.4,1.8.2,2.7-.2.9-.7,1.8-1.4,2.6l-4.8,5.7-2.2-1.8,4.9-5.8c.4-.4.6-.9.7-1.3,0-.5,0-.9,0-1.3-.2-.4-.5-.8-.9-1.2-.4-.4-.9-.6-1.3-.7-.4,0-.9,0-1.3.1-.4.2-.8.5-1.2.9l-4.9,5.8-2.2-1.8,4.8-5.7c.7-.9,1.5-1.5,2.4-1.8s1.7-.4,2.7-.3c.9.2,1.8.7,2.8,1.4Z"/><path class="cls-1" d="M41.6,145.8c.7.9,1.2,1.8,1.3,2.6.2.8.2,1.6,0,2.3-.2.7-.7,1.3-1.3,1.8l-1.7-2.2c.3-.2.4-.5.5-.8.1-.3.1-.7,0-1.1,0-.4-.3-.8-.7-1.3-.3-.4-.7-.7-1-.9-.3-.2-.6-.3-1-.3-.3,0-.6.1-.8.3-.3.2-.5.6-.4,1,0,.4.3,1,.7,1.6l.5.8c.7,1.1,1,2.1.9,3.1,0,1-.5,1.9-1.4,2.5-.6.5-1.3.8-2,.8-.7,0-1.4,0-2.1-.4s-1.3-.9-1.9-1.6c-.6-.8-1-1.6-1.2-2.3s-.1-1.5.1-2.2.7-1.3,1.3-1.8l1.7,2.2c-.2.2-.4.4-.5.7-.1.3-.1.6,0,.9,0,.3.2.7.5,1,.3.3.5.6.8.7.3.1.6.2.8.2.3,0,.5-.1.7-.3.3-.2.4-.5.5-.9,0-.4,0-.8-.4-1.3l-.5-.8c-.5-.8-.9-1.5-1-2.3-.2-.7-.2-1.4,0-2.1.2-.7.6-1.2,1.2-1.7.6-.5,1.3-.8,2.1-.8.7,0,1.5.1,2.2.5s1.4,1,2.1,1.9Z"/><path class="cls-1" d="M23.1,135.9l-2.3.9-3.7-9.3,2.3-.9,3.7,9.3ZM31.2,128.8l-9.7,3.9-1-2.6,9.7-3.9,1,2.6Z"/><path class="cls-1" d="M26.9,112.4c.2,1.1.2,2.1-.1,3-.3.9-.7,1.7-1.2,2.3-.6.7-1.2,1.2-1.9,1.6-.7.4-1.4.7-2.1.8h-.4c-.8.2-1.6.2-2.4,0-.8-.2-1.6-.5-2.3-.9-.7-.5-1.3-1.1-1.8-1.8-.5-.8-.9-1.7-1-2.8-.2-1.1-.2-2.1,0-3,.2-.9.6-1.7,1.1-2.3.5-.7,1.1-1.2,1.8-1.6.7-.4,1.4-.7,2.2-.8h.4c.7-.2,1.5-.2,2.2,0,.8.1,1.6.4,2.3.9.7.4,1.4,1,1.9,1.8.5.8.9,1.7,1.1,2.8ZM24.2,112.9c0-.6-.3-1.1-.6-1.5s-.6-.8-1.1-1.1c-.4-.3-.9-.5-1.4-.5-.5,0-1,0-1.6,0-.6,0-1.1.3-1.5.5-.5.3-.8.6-1.1,1-.3.4-.5.8-.6,1.3-.1.5-.1,1,0,1.6,0,.6.3,1.1.6,1.5.3.4.6.8,1,1.1.4.3.9.5,1.4.5s1.1,0,1.6,0c.5,0,1-.3,1.5-.5.4-.3.8-.6,1.1-1,.3-.4.5-.8.7-1.3.1-.5.1-1,0-1.6Z"/><path class="cls-1" d="M26,94.6c0,1.1-.3,2.1-.8,2.9-.4.8-1,1.5-1.7,2-.7.5-1.4.9-2.2,1.1-.8.2-1.6.3-2.3.2h-.4c-.8,0-1.6-.3-2.3-.6-.7-.3-1.4-.8-2-1.4s-1-1.3-1.3-2.1c-.3-.8-.4-1.8-.4-2.8,0-1.1.4-2.1.8-3,.5-.8,1.1-1.5,1.9-2,.8-.5,1.7-.7,2.6-.7l-.2,2.8c-.5,0-.9.2-1.2.5s-.7.6-.9,1.1c-.2.4-.4.9-.4,1.5,0,.6,0,1,.2,1.5.2.4.4.8.7,1.2.3.3.7.6,1.2.8.5.2,1,.3,1.6.3.6,0,1.2,0,1.7-.1.5-.1,1-.3,1.3-.6.4-.3.7-.7.9-1.1.2-.5.4-1,.4-1.6,0-.8,0-1.5-.3-2.1-.3-.6-.7-1-1.2-1.3l1.9.5-3-.2.2-2.6,2.7.2c.8.6,1.5,1.4,1.9,2.4.4,1,.6,2.1.5,3.3ZM21.2,94.7h-2.1c0-.1.5-7.1.5-7.1h2.1c0,.1-.5,7.1-.5,7.1Z"/><path class="cls-1" d="M27.3,83.1l-12.1-3.5.8-2.7,12.1,3.5-.8,2.7ZM18.1,78l-2.3-.6,1.5-5.2,2.3.6-1.5,5.2ZM23,79.4l-2.3-.6,1.4-4.9,2.3.6-1.4,4.9ZM28,80.8l-2.3-.6,1.5-5.3,2.3.6-1.5,5.3Z"/><path class="cls-1" d="M22,66.7l-2.2-1.1,4.5-8.9,2.2,1.1-4.5,8.9ZM32.7,68.1l-9.4-4.7,1.3-2.5,9.4,4.7-1.3,2.5Z"/><path class="cls-1" d="M38.2,58.1l-9.9-7.8,1.8-2.2,9.9,7.8-1.8,2.2ZM43.2,51.8l-9.9-7.8,1.8-2.2,9.9,7.8-1.8,2.2ZM35.6,53.1l-1.9-1.5,3.9-4.9,1.9,1.5-3.9,4.9Z"/><path class="cls-1" d="M49.3,45.3l-8.1-9.7,2.1-1.8,8.1,9.7-2.1,1.8ZM44.6,35.9l-1.5-1.8,4.1-3.5,1.5,1.8-4.1,3.5ZM47.8,39.8l-1.5-1.8,3.9-3.3,1.5,1.8-3.9,3.3ZM51.2,43.8l-1.5-1.8,4.2-3.5,1.5,1.8-4.2,3.5Z"/><path class="cls-1" d="M60,37.1l-6.1-11.2,2.5-1.4,6.1,11.2-2.5,1.4ZM59.9,32.5l-1.1-2,2.7-1.5c.4-.2.6-.4.8-.7.2-.3.3-.6.3-1,0-.4,0-.7-.3-1-.2-.4-.4-.6-.7-.8-.3-.2-.6-.3-1-.3-.3,0-.7,0-1.1.3l-2.7,1.5-1.2-2.1,2.5-1.4c.9-.5,1.8-.8,2.6-.9.8,0,1.6,0,2.2.4.7.4,1.2.9,1.7,1.8v.2c.6.8.8,1.6.7,2.3,0,.7-.4,1.4-.9,2.1-.5.6-1.2,1.2-2.2,1.7l-2.5,1.4ZM66.7,33.4l-5.9-3,2.7-1.5,6,2.9-2.9,1.6Z"/><path class="cls-1" d="M73.8,30.4l-1-2.9,2.9-1,1,2.9-2.9,1Z"/><path class="cls-1" d="M100,200c-26.7,0-51.8-10.4-70.7-29.3C10.4,151.8,0,126.7,0,100S10.4,48.2,29.3,29.3C48.2,10.4,73.3,0,100,0s51.8,10.4,70.7,29.3c18.9,18.9,29.3,44,29.3,70.7s-10.4,51.8-29.3,70.7c-18.9,18.9-44,29.3-70.7,29.3ZM100,3.7C46.9,3.7,3.7,46.9,3.7,100s43.2,96.3,96.3,96.3,96.3-43.2,96.3-96.3S153.1,3.7,100,3.7Z"/></svg>