<?xml version="1.0" encoding="UTF-8"?><svg id="Layer_1" xmlns="http://www.w3.org/2000/svg" viewBox="0 0 200 200"><defs><style>.cls-1{fill:#db0b0b;}</style></defs><path class="cls-1" d="M54.2,33.2l-9.7-16.3,3.1-1.9,9.7,16.3s-3.1,1.9-3.1,1.9ZM48.9,17.9l-1.6-2.8,7.2-4.4,1.6,2.8-7.2,4.4ZM53,24.5l-1.6-2.8,6.9-4.1,1.6,2.8s-6.9,4.1-6.9,4.1ZM57.1,31.7l-1.6-2.8,7.5-4.4,1.6,2.8-7.5,4.4Z"/><path class="cls-1" d="M65.2,26.6l3.1-11.6h0c0,.3-8.8-6.3-8.8-6.3l3.8-1.3,6,4.7h.6l1.9-7.5,3.8-1.3-2.8,11h0c0-.3,9.7,6.9,9.7,6.9l-3.8,1.3-6.9-5h-.6l-1.9,8.5-3.8,1.3-.3-.6Z"/><path class="cls-1" d="M83.7,20.7l-2.2-18.8h3.8c0-.3,2.2,18.5,2.2,18.5h-3.8v.3ZM86.2,14.4v-3.1c-.3,0,3.1-.3,3.1-.3.6,0,1.3,0,1.9-.6.3-.3.9-.9.9-1.3v-1.9c0-.6,0-1.3-.6-1.9-.3-.6-.6-.9-1.3-.9h-5.6c0,.3-.3-2.8-.3-2.8h3.4c1.6-.6,2.8-.6,4.1,0s2.2.9,2.8,1.9c.6.9,1.3,1.9,1.3,3.4h0c0,1.6,0,2.8-.3,3.8s-1.3,1.9-2.2,2.5c-.9.6-2.5.9-4.1,1.3h-3.4.3Z"/><path class="cls-1" d="M100,19.1l1.3-18.8h3.4l-1.3,19.1h-3.4v-.3ZM103.1,19.1v-3.1l8.8.6v3.1l-8.8-.6ZM103.4,11.3v-3.1l8.2.6v3.1l-8.2-.6ZM104.1,3.4V.3l8.5.6v3.1s-8.5-.6-8.5-.6Z"/><path class="cls-1" d="M114.4,20.1l5-18.5,3.4.9-5,18.5-3.4-.9ZM118.8,14.7l.9-2.8,4.7,1.3h1.9c.6,0,.9-.3,1.3-.9.3-.3.6-.9.9-1.6v-1.9c0-.6-.3-.9-.9-1.6-.3-.3-.9-.6-1.6-.9l-4.7-1.3.9-3.1,4.4,1.3c1.6.3,2.8.9,3.8,1.6s1.6,1.6,1.9,2.5.3,2.2,0,3.4h0c-.3,1.9-.9,2.8-1.9,3.4s-1.9,1.3-3.1,1.3-2.5,0-4.1-.3l-4.4-1.3v.9ZM125.7,23.2l-3.4-9.4,4.1.9,3.8,9.4-4.1-1.3-.3.3Z"/><path class="cls-1" d="M131.7,25.7l7.8-17.2,3.4,1.6-7.8,17.2-3.4-1.6Z"/><path class="cls-1" d="M138.9,28.8l10-16,3.1,1.9-10,16s-3.1-1.9-3.1-1.9ZM141.4,30.4l1.6-2.5,7.2,4.7-1.6,2.5-7.2-4.7ZM145.8,23.8l1.6-2.5,6.6,4.4-1.6,2.5s-6.6-4.4-6.6-4.4ZM149.8,17.2l1.6-2.5,7.2,4.4-1.6,2.5-7.2-4.4Z"/><path class="cls-1" d="M151.1,36.7l13.5-13.5,4.4,4.4-5.6,16.9.6.6h-.6l11.6-11.6,2.5,2.5-13.5,13.5-4.4-4.4,5.6-16.9-.6-.6h.6l-11.6,11.6-2.5-2.5Z"/><path class="cls-1" d="M169.6,59.9c-.9-1.6-1.3-2.8-1.6-4.4s0-2.5.6-3.8.9-2.2,1.9-3.1,1.6-1.6,2.5-2.2h.6c.9-.9,2.2-1.3,3.1-1.6s2.5,0,3.4,0,2.2.6,3.4,1.6c.9.6,2.2,1.9,2.8,3.1.9,1.6,1.3,2.8,1.6,4.4,0,1.6,0,2.8-.6,4.1s-1.6,2.2-2.8,3.1l-1.9-3.1c.6-.6,1.3-1.3,1.6-1.9,0-.6.3-1.6,0-2.2,0-.9-.3-1.6-.9-2.5s-.9-1.6-1.6-1.9-1.3-.6-2.2-.9h-2.5c-.9,0-1.6.6-2.5.9-.9.6-1.6.9-2.2,1.6s-.9,1.3-1.3,1.9-.3,1.6,0,2.2c0,.9.3,1.6.9,2.5.6,1.3,1.6,2.2,2.8,2.5.9.6,2.2.6,3.4,0l1.9,3.1c-1.3.6-2.5.6-3.8.6s-2.5-.6-3.8-1.3c-1.3-.6-2.2-1.9-3.1-3.4v.6Z"/><path class="cls-1" d="M175.2,69.9l18.2-6,1.3,3.4-18.2,6-1.3-3.4ZM176.2,72.7l2.8-.9,2.8,8.2-2.8.9-2.8-8.2ZM183.7,70.2l2.8-.9,2.5,7.5-2.8.9-2.5-7.5ZM191.2,67.7l2.8-.9,2.5,7.8-2.8.9-2.5-7.8Z"/><path class="cls-1" d="M180.3,97.5c0-1.9,0-3.1.6-4.4s1.3-2.2,2.2-3.1,1.9-1.6,3.1-1.9,2.2-.6,3.1-.6h.6c1.3,0,2.2,0,3.4.3s2.2.9,3.1,1.6,1.9,1.6,2.5,2.8.9,2.5.9,4.4,0,3.1-.6,4.4c-.6,1.3-1.3,2.5-2.5,3.1-.9.9-2.5,1.3-3.8,1.6v-3.8c.6,0,1.6-.6,1.9-.9.6-.6.9-1.3,1.3-1.9s.3-1.6.3-2.5,0-1.9-.6-2.5c-.3-.6-.9-1.3-1.6-1.9-.6-.3-1.3-.9-2.2-.9s-1.6-.3-2.5,0c-.9,0-1.9,0-2.5.6-.9,0-1.6.6-2.2,1.3-.6.6-.9,1.3-1.3,1.9,0,.6-.3,1.6-.3,2.5,0,1.6.3,2.5,1.3,3.4.6.9,1.9,1.6,3.1,1.6v3.8c-1.3,0-2.5-.6-3.8-1.3s-2.2-1.6-2.8-2.8-1.3-2.8-1.3-4.7h.3Z"/><path class="cls-1" d="M179.9,111.9l3.1.6-1.3,8.2-3.1-.6,1.3-8.2ZM180.6,108.8l18.8,3.1-.6,3.8-18.8-3.1.6-3.8Z"/><path class="cls-1" d="M175.2,128.5c.6-1.6,1.6-2.8,2.5-3.8s2.2-1.6,3.8-1.6,2.8,0,4.4.6l10.7,4.1-1.3,3.4-10.7-4.1c-.9-.3-1.6-.3-2.5-.3s-1.6.3-1.9.9c-.6.6-.9,1.3-1.3,2.2-.3.9-.3,1.9-.3,2.5s.3,1.3.9,1.9,1.3.9,2.2,1.3l10.7,4.1-1.3,3.4-10.7-4.1c-1.6-.6-2.8-1.3-3.8-2.5-.9-.9-1.6-2.2-1.6-3.4s0-2.8.6-4.7h-.6Z"/><path class="cls-1" d="M169.3,141.7l2.5,1.6-2.5,4.1c-.6.6-.6,1.3-.6,1.9s.6,1.3,1.3,1.6,1.3.6,1.9.6,1.3-.6,1.6-1.3l2.5-4.1,1.9,1.3-2.5,3.8c-.6.9-1.6,1.9-2.2,2.5-.9.6-1.6.9-2.5,1.3-.9,0-1.9,0-2.8-.9h0c-.9-.9-1.6-1.6-1.9-2.5s-.6-1.9,0-2.8c0-.9.6-2.2,1.6-3.4l2.5-3.8-.6.3ZM170.8,139.2l16,10.7-1.9,3.1-16-10.7,1.9-3.1ZM176.5,146.7l1.9,1.3-2.2,3.4c-.6.6-.6,1.3-.6,1.9s.6,1.3,1.3,1.6,1.3.6,1.9.6,1.3-.6,1.6-1.3l2.2-3.4,2.5,1.6-2.2,3.1c-1.3,1.9-2.5,2.8-3.8,3.4-1.3.3-2.8,0-4.1-.6h-.3c-.9-.9-1.6-1.6-1.9-2.5v-2.8c0-.9.9-1.9,1.6-3.1,0,0,2.2-3.1,2.2-3.1Z"/><path class="cls-1" d="M160.2,159.9l4.7,5-5,4.7-4.7-5,5-4.7Z"/><path class="cls-1" d="M142.3,169l1.6,2.8-7.5,4.4-1.6-2.8,7.5-4.4ZM146.4,175.9l1.6,2.8-6.9,4.1-1.6-2.8,6.9-4.1ZM145.1,167.4l9.4,16.3-3.1,1.9-9.4-16.3,3.1-1.9ZM150.5,182.4l1.6,2.8-7.2,4.1-1.6-2.8,7.2-4.1Z"/><path class="cls-1" d="M134.5,173.7l-3.1,11.6h0c0-.3,8.8,6.6,8.8,6.6l-3.8,1.3-6-4.7h-.6l-1.9,7.5-3.8,1.3,2.8-11h0c0,.3-9.7-6.9-9.7-6.9l3.8-1.3,6.9,5.3h.6l2.2-8.5s3.8-1.3,3.8-1.3Z"/><path class="cls-1" d="M113.2,185.9v3.1c.3,0-3.4.3-3.4.3-.6,0-1.3,0-1.9.6-.6.3-.9.9-.9,1.3v1.9c0,.6,0,1.3.6,1.9.3.6.6.9,1.3.9h5.6c0-.3.3,2.8.3,2.8h-3.4c-1.6.6-2.8.3-4.1,0-1.3-.3-2.2-.9-2.8-1.9s-1.3-1.9-1.3-3.4h0c0-1.6,0-2.8.6-3.8s1.3-1.9,2.2-2.5,2.5-.9,4.1-1.3h3.4-.3ZM115.7,179.6l2.2,19.1h-3.8c0,.3-2.2-18.5-2.2-18.5h3.8v-.6Z"/><path class="cls-1" d="M95,196.6v3.1l-8.5-.6v-3.1l8.5.6ZM96.2,180.9v3.1l-8.8-.6v-3.1l8.8.6ZM95.6,188.7v3.1l-8.2-.6v-3.1l8.2.6ZM99.4,180.9l-1.3,18.8h-3.4l1.3-19.1h3.4v.3Z"/><path class="cls-1" d="M80.6,185.3l-.9,2.8-4.7-1.3h-1.9c-.6,0-.9.3-1.6.9-.3.3-.6.9-.9,1.6v1.9c0,.6.3.9.6,1.6.3.3.9.6,1.6.9l4.7,1.3-.9,3.1-4.4-1.3c-1.6-.3-2.8-.9-3.8-1.9-.9-.6-1.6-1.6-1.9-2.8-.3-.9,0-2.2,0-3.4h0c.3-1.9.9-2.8,1.9-3.4.9-.6,1.9-1.3,3.1-1.3s2.5,0,4.1.3l4.4,1.3.6-.3ZM73.7,176.5l3.4,9.4-4.1-1.3-3.4-9.4,4.1,1.3ZM84.6,179.6l-5.3,18.5-3.4-.9,5.3-18.5,3.4.9Z"/><path class="cls-1" d="M67.7,174l-8.2,17.2-3.4-1.6,8.2-17.2,3.4,1.6Z"/><path class="cls-1" d="M49.2,182.4l-1.6,2.5-6.9-4.7,1.6-2.5,6.9,4.7ZM53.6,175.9l-1.6,2.5-6.6-4.4,1.6-2.5,6.6,4.4ZM60.5,170.8l-10.3,16-3.1-1.9,10.3-16,3.1,1.9ZM58,169l-1.6,2.5-7.2-4.7,1.6-2.5s7.2,4.7,7.2,4.7Z"/><path class="cls-1" d="M48.3,163l-13.5,13.2-4.1-4.4,6-16.9-.6-.6h.6l-11.6,11.6-2.5-2.5,13.5-13.2,4.4,4.4-6,16.9.6.6h-.6l11.6-11.6,2.5,2.5h-.3Z"/><path class="cls-1" d="M30.1,139.5c.9,1.6,1.3,2.8,1.6,4.4,0,1.3,0,2.5-.6,3.8-.3,1.3-1.3,2.2-1.9,3.1-.9.9-1.6,1.6-2.5,2.2h-.6c-.9.9-2.2,1.3-3.4,1.6h-3.4c-1.3,0-2.2-.6-3.4-1.6s-2.2-1.9-2.8-3.1c-.9-1.6-1.3-2.8-1.6-4.4s0-2.8.6-4.1c.6-1.3,1.6-2.2,2.8-3.1l1.9,3.1c-.6.6-1.3,1.3-1.6,1.9,0,.6-.3,1.6,0,2.2s.3,1.6.9,2.5c.3.9.9,1.6,1.6,1.9s1.3.6,2.2.9h2.5c.9,0,1.6-.6,2.5-.9s1.6-.9,2.2-1.6.9-1.3,1.3-1.9.3-1.6,0-2.2c0-.9-.3-1.6-.9-2.5-.6-1.3-1.6-2.2-2.8-2.5s-2.2-.6-3.4,0l-1.9-3.1c1.3-.6,2.5-.6,3.8-.6s2.5.6,3.8,1.3c1.3.9,2.2,1.9,3.1,3.4l.3-.6Z"/><path class="cls-1" d="M8.5,131.3l-2.8.9-2.5-8.2,2.8-.9,2.5,8.2ZM24.5,129.5l-18.2,5.6-.9-3.4,18.2-5.6s.9,3.4.9,3.4ZM16,129.2l-2.8.9-2.5-7.5,2.8-.9,2.5,7.5ZM23.5,126.6l-2.8.9-2.5-8.2,2.8-.9,2.5,8.2Z"/><path class="cls-1" d="M19.7,101.9c0,1.9,0,3.1-.6,4.4s-1.3,2.2-2.2,3.1c-.9.9-1.9,1.3-3.1,1.9-1.3.3-2.2.6-3.4.6h-.6c-1.3,0-2.2,0-3.4-.3-1.3-.3-2.2-.9-3.1-1.6s-1.9-1.6-2.2-2.8c-.6-1.3-.9-2.5-.9-4.4s0-3.1.9-4.4c.6-1.3,1.6-2.2,2.5-3.1.9-.9,2.5-1.3,3.8-1.6v3.8c-.6,0-1.6.3-2.2.9-.6.6-.9,1.3-1.3,1.9,0,.6-.3,1.6-.3,2.5s0,1.9.6,2.5.9,1.3,1.6,1.9c.6.3,1.3.9,2.2.9s1.6.3,2.5,0c.9,0,1.9,0,2.5-.3.9,0,1.6-.6,2.2-1.3s.9-1.3,1.3-1.9c0-.6.3-1.6.3-2.5,0-1.6-.3-2.5-1.3-3.4-.6-.9-1.9-1.6-3.1-1.6v-3.8c1.3,0,2.5.6,3.8,1.3,1.3.6,2.2,1.6,2.8,3.1s.9,2.8,1.3,4.7l-.3-.6Z"/><path class="cls-1" d="M19.4,90.6l-18.8-3.4.6-3.8,18.8,3.4-.6,3.8ZM20.1,87.5l-3.1-.6,1.6-8.2,3.1.6-1.6,8.2Z"/><path class="cls-1" d="M25.1,70.8c-.6,1.6-1.6,2.8-2.5,3.8-.9.9-2.2,1.3-3.8,1.6-1.3,0-2.8,0-4.4-.6l-10.7-4.1,1.3-3.4,10.7,4.1c.9.3,1.6.3,2.5.3s1.6-.3,1.9-.9.9-1.3,1.3-2.2c.3-.9.6-1.9.3-2.5s-.3-1.3-.9-1.9-1.3-.9-1.9-1.3l-10.7-4.1,1.3-3.4,10.7,4.1c1.6.6,2.8,1.6,3.8,2.5s1.6,2.2,1.6,3.4,0,2.8-.6,4.7h.3Z"/><path class="cls-1" d="M29.5,60.2l-16-10.7,1.9-3.1,16,10.7-1.9,3.1ZM23.8,52.7l-1.9-1.3,2.2-3.4c.6-.6.6-1.3.6-1.9s-.6-1.3-1.3-1.6c-.6-.3-1.3-.6-1.9-.6s-1.3.6-1.6,1.3l-2.2,3.4-2.5-1.6,2.2-3.1c1.3-1.9,2.5-2.8,3.8-3.1s2.8,0,4.1.9h.3c.9.9,1.6,1.6,1.9,2.5v2.8c0,.9-.9,1.9-1.6,3.1l-2.2,3.1v-.6ZM31.3,57.7l-2.5-1.6,2.8-4.1c.6-.6.6-1.3.6-1.9s-.6-1.3-1.3-1.6-1.3-.6-1.9-.6-1.3.6-1.6,1.3l-2.8,4.1-1.9-1.3,2.5-3.8c.6-.9,1.6-1.9,2.2-2.5.9-.6,1.6-.9,2.5-.9s1.9,0,2.8.9h0c.9.9,1.6,1.6,1.9,2.5s.3,1.9,0,2.8c0,.9-.6,2.2-1.6,3.4l-2.5,3.8.6-.6Z"/><path class="cls-1" d="M40.4,39.5l-4.7-5.3,5-4.4,4.7,5.3-5,4.4Z"/></svg>