<?xml version="1.0" encoding="UTF-8"?>
<svg id="Ebene_1" data-name="Ebene 1" xmlns="http://www.w3.org/2000/svg" viewBox="0 0 985.03 477.38">
  <g>
    <path d="M560.46,405.64v29.78h-15.35c0-3.56.51-6.5,1.63-9.35l-.51-.3c-3.25,7.42-8.94,11.18-16.47,11.18-10.06,0-16.77-6.51-16.77-16.46s6.71-16.06,16.97-16.06c7.22,0,12.71,2.95,16.06,8.74l.41-.2c-.61-1.83-.81-3.86-.81-7.52s-3.76-6.1-9.76-6.1c-4.17,0-7.52.3-14.33,1.53l-2.13-12.2c6.1-1.12,12.91-1.73,18.4-1.73,16.16,0,22.67,5.39,22.67,18.7ZM529.46,419.46c0,3.56,2.64,6,6.5,6s6.61-2.54,6.61-6-2.74-6-6.61-6-6.5,2.54-6.5,6Z"/>
    <path d="M567.67,411.94c0-14.74,10.67-25,26.12-25,6.3,0,11.69,1.42,16.97,4.57l-6.2,12.3c-3.25-2.03-6.2-2.85-10.06-2.85-6.71,0-11.38,4.47-11.38,10.98s4.67,10.98,11.38,10.98c3.86,0,6.81-.81,10.06-2.85l6.2,12.3c-5.29,3.15-10.67,4.57-16.97,4.57-15.45,0-26.12-10.27-26.12-25Z"/>
    <path d="M660.98,405.64v29.78h-15.35c0-3.56.51-6.5,1.63-9.35l-.51-.3c-3.25,7.42-8.94,11.18-16.47,11.18-10.06,0-16.77-6.51-16.77-16.46s6.71-16.06,16.97-16.06c7.22,0,12.71,2.95,16.06,8.74l.41-.2c-.61-1.83-.81-3.86-.81-7.52s-3.76-6.1-9.76-6.1c-4.17,0-7.52.3-14.33,1.53l-2.13-12.2c6.1-1.12,12.91-1.73,18.4-1.73,16.16,0,22.67,5.39,22.67,18.7ZM629.98,419.46c0,3.56,2.64,6,6.5,6s6.61-2.54,6.61-6-2.74-6-6.61-6-6.5,2.54-6.5,6Z"/>
    <path d="M668.19,412.04c0-15.04,8.64-25.1,21.65-25.1,8.13,0,14.13,4.17,17.38,12.2l.41-.1c-.91-3.15-1.42-8.13-1.42-13.42v-22.87h15.35v72.67h-14.94c0-4.17.2-6.91.92-10.57l-.41-.1c-2.74,7.72-9.05,12.2-17.28,12.2-13.11,0-21.65-9.86-21.65-24.9ZM706.91,411.94c0-6.81-4.47-11.28-11.49-11.28s-11.49,4.37-11.49,11.28,4.47,11.28,11.49,11.28,11.49-4.47,11.49-11.28Z"/>
    <path d="M777.45,411.74v4.07h-27.85c-2.64,0-3.96-.1-5.49-1.22l-.2.3.41,1.12c1.32,5.39,5.29,8.33,11.69,8.33,5.39,0,10.37-2.03,13.62-4.17l5.08,11.69c-5.69,3.35-11.59,5.08-18.6,5.08-16.26,0-26.83-9.35-26.83-25.11s10.37-24.8,24.9-24.8,23.28,8.84,23.28,24.7ZM743.7,407.17l.2.31c.61-.71,2.44-.92,4.27-.92h10.27c1.73,0,3.25.1,3.86.81l.2-.2c-.3-5.79-3.76-8.74-8.94-8.74s-9.15,3.25-9.86,8.74Z"/>
    <path d="M784.76,435.42v-46.96h15.04c0,3.76-.31,6.1-1.12,9.66l.41.2c3.46-7.62,8.03-11.38,16.16-11.38,8.64,0,12.81,4.27,14.74,11.59h.41c2.54-6.3,7.42-11.59,16.36-11.59,9.86,0,16.46,5.79,16.46,18.7v29.78h-15.35v-24.9c0-7.72-3.15-10.06-7.72-10.06-4.88,0-8.74,2.85-8.74,12.2v22.77h-14.74v-25.1c0-7.52-3.15-9.86-7.72-9.86-4.88,0-8.84,2.85-8.84,12.2v22.77h-15.35Z"/>
    <path d="M918.82,388.46l-29.98,67.29h-15.35l10.98-23.99-20.02-43.3h16.47l7.83,18.4c1.73,4.17,2.34,6.71,2.64,11.59l.41-.1c.2-2.85.71-5.49,2.13-8.95l8.44-20.94h16.47Z"/>
  </g>
  <g>
    <path d="M501.43,23.25v21.55c0,1.42,0,2.85-.71,4.07l.2.2c1.22-.71,2.64-.71,4.57-.71h5.18v12.91h-5.18c-2.34,0-3.46,0-4.57-.71l-.2.2c.71,1.22.71,2.75.71,5.79v28.76h-15.35v-28.76c0-3.05,0-4.57.71-5.79l-.2-.2c-1.12.71-2.24.71-4.57.71h-4.27v-12.91h4.27c1.93,0,3.35,0,4.57.71l.2-.2c-.71-1.22-.71-2.74-.71-4.07v-12.2l13.82-9.35h1.52Z"/>
    <path d="M531.41,22.64v21.65c0,6.91-.3,10.27-1.12,14.53l.41.2c3.05-7.22,7.62-12.2,16.67-12.2,10.47,0,16.97,6.4,16.97,19.11v29.37h-15.25v-25.1c0-7.42-3.05-9.96-8.03-9.96-5.39,0-9.66,3.46-9.66,12.4v22.67h-15.35V22.64h15.35Z"/>
    <path d="M617.8,71.63v4.07h-27.85c-2.64,0-3.96-.1-5.49-1.22l-.2.3.41,1.12c1.32,5.39,5.29,8.33,11.69,8.33,5.39,0,10.37-2.03,13.62-4.17l5.08,11.69c-5.69,3.35-11.59,5.08-18.6,5.08-16.26,0-26.83-9.35-26.83-25.1s10.37-24.8,24.9-24.8,23.28,8.84,23.28,24.7ZM584.06,67.06l.2.31c.61-.71,2.44-.92,4.27-.92h10.27c1.73,0,3.25.1,3.86.81l.2-.2c-.3-5.79-3.76-8.74-8.94-8.74s-9.15,3.25-9.86,8.74Z"/>
  </g>
  <path d="M954.86,239.69c0-26.67-9.93-52.17-27.96-71.81-20.06-21.85-48.57-34.38-78.22-34.38-26,0-49.84,9.4-68.32,24.97-19.03-16-43.3-24.97-68.39-24.97-28.15,0-53.78,11.02-72.8,28.96-19.62-18.53-45.59-28.96-72.88-28.96-58.55,0-106.18,47.63-106.18,106.18s47.63,106.18,106.18,106.18c10.75,0,21.37-1.61,31.57-4.78,2.2-.68,4.59-1.51,7.09-2.49v6.98h51v-15.74c16.27,10.15,35.47,16.02,56.03,16.02,25.26,0,49.39-8.94,68.4-24.96,18.48,15.57,42.32,24.96,68.32,24.96,31.24,0,60.75-13.67,80.98-37.5,4.68-5.51,8.8-11.52,12.26-17.85l-44.76-24.44c-1.8,3.29-3.94,6.42-6.38,9.29-10.52,12.39-25.86,19.5-42.1,19.5-21.24,0-39.71-12.06-48.93-29.68h155.12v-25.5ZM582.7,292.4c-5.29,1.64-10.81,2.48-16.42,2.48-30.43,0-55.18-24.76-55.18-55.18s24.76-55.18,55.18-55.18c14.55,0,28.37,5.72,38.66,15.83v78.78c-7.57,7.57-16.16,11.39-22.24,13.29ZM656.77,239.69c0-30.43,24.76-55.18,55.18-55.18,14.49,0,27.94,5.46,38.26,15.43-4.98,12.29-7.73,25.71-7.73,39.76s2.75,27.47,7.73,39.75c-10.25,9.86-23.9,15.43-38.26,15.43-30.43,0-55.18-24.76-55.18-55.18ZM799.74,214.19c9.22-17.63,27.7-29.68,48.93-29.68,15.64,0,30.08,6.35,40.66,17.87,3.3,3.59,6.08,7.57,8.29,11.81h-97.88Z"/>
  <path d="M412.97,258.84c-.56-27.52-11.94-53.74-32.02-73.83-.01-.01-.03-.03-.04-.04L241.67,47.15c-3.11-3.08-7.24-4.78-11.62-4.78s-8.51,1.7-11.62,4.78L79.2,184.97s-.03.03-.04.04c-20.08,20.08-31.46,46.3-32.02,73.83-.02,1.07-.03,2.14-.02,3.17.23,28.63,11.58,55.67,31.98,76.13,20.39,20.46,47.4,31.9,76.03,32.22.93.01,1.85.02,2.76.02,11.66,0,22.16-.86,32.47-4.21-1.8,5.7-4.04,11.65-6.28,13.76l-10.49,9.91c-.11.1-.21.21-.32.31-2.21,2.25-3.49,5.32-3.49,8.48v8.55c0,9.11,7.41,16.51,16.51,16.51h88.01c4.42,0,8.57-1.72,11.7-4.85,3.12-3.13,4.83-7.29,4.82-11.71l-.02-6.65c-.01-4.5-1.9-8.86-5.17-11.95l-7.37-6.96c-1.01-.95-3.34-4.19-6.84-15.07,9.95,3.09,19.95,3.89,31.02,3.89.83,0,1.67,0,2.52-.01,28.64-.31,55.64-11.76,76.03-32.22,20.39-20.46,31.75-47.5,31.98-76.13,0-1.06,0-2.13-.02-3.17ZM250.13,171.63c0-6.65,5.39-12.05,12.05-12.05s12.05,5.39,12.05,12.05v64.8c0,6.65-5.39,12.05-12.05,12.05s-12.05-5.39-12.05-12.05v-64.8ZM189.61,157.57c6.66-.24,12.22,4.97,12.45,11.62l2.2,63.78c.23,6.65-4.97,12.22-11.62,12.45-.14,0-.28,0-.42,0-6.46,0-11.81-5.12-12.03-11.63l-2.2-63.78c-.23-6.65,4.97-12.22,11.62-12.45ZM337.38,243.39c-6.68,27.75-28.94,51.29-58.1,61.43-11.17,3.89-23.16,5.82-35.47,5.82-15.57,0-31.67-3.09-47.37-9.23-22.98-8.99-44.68-23.94-66.34-45.71-4.69-4.72-4.67-12.34.04-17.04,4.71-4.69,12.34-4.67,17.04.04,19.25,19.35,38.24,32.52,58.04,40.26,22.78,8.91,46.27,10,66.15,3.09,21.17-7.36,37.89-24.76,42.6-44.32,1.56-6.47,8.06-10.45,14.53-8.89,6.47,1.56,10.45,8.06,8.89,14.53Z"/>
</svg>